<svg width="319" height="231" viewBox="0 0 319 231" fill="none" xmlns="http://www.w3.org/2000/svg">
<g clip-path="url(#clip0_48_39)">
<path d="M203.283 173.174V228.858H63.6351C47.7241 228.858 34.7788 216.368 34.7788 201.016C34.7788 185.664 47.7241 173.174 63.6351 173.174H203.283Z" fill="#F2F2F2"/>
<path d="M206.713 228.43C206.713 228.998 206.487 229.543 206.085 229.944C205.683 230.346 205.138 230.571 204.569 230.572H61.1476C53.3582 230.572 45.8877 227.48 40.3797 221.978C34.8717 216.475 31.7773 209.012 31.7773 201.23C31.7773 193.448 34.8717 185.985 40.3797 180.482C45.8877 174.98 53.3582 171.889 61.1476 171.889H204.569C205.138 171.889 205.683 172.114 206.085 172.516C206.487 172.917 206.713 173.462 206.713 174.03C206.713 174.598 206.487 175.143 206.085 175.545C205.683 175.946 205.138 176.172 204.569 176.172H61.1476C54.4953 176.172 48.1154 178.812 43.4115 183.511C38.7076 188.211 36.065 194.584 36.065 201.23C36.065 207.876 38.7076 214.25 43.4115 218.949C48.1154 223.648 54.4953 226.288 61.1476 226.288H204.569C205.138 226.288 205.683 226.514 206.085 226.916C206.487 227.317 206.713 227.862 206.713 228.43Z" fill="#0D2C38"/>
<path d="M203.283 186.024H53.2156C53.1019 186.024 52.9929 185.979 52.9125 185.898C52.832 185.818 52.7869 185.709 52.7869 185.596C52.7869 185.482 52.832 185.373 52.9125 185.293C52.9929 185.212 53.1019 185.167 53.2156 185.167H203.283C203.397 185.167 203.506 185.212 203.586 185.293C203.666 185.373 203.712 185.482 203.712 185.596C203.712 185.709 203.666 185.818 203.586 185.898C203.506 185.979 203.397 186.024 203.283 186.024Z" fill="#CCCCCC"/>
<path d="M203.283 196.304H53.2156C53.1019 196.304 52.9929 196.259 52.9125 196.179C52.832 196.098 52.7869 195.989 52.7869 195.876C52.7869 195.762 52.832 195.653 52.9125 195.573C52.9929 195.493 53.1019 195.447 53.2156 195.447H203.283C203.397 195.447 203.506 195.493 203.586 195.573C203.666 195.653 203.712 195.762 203.712 195.876C203.712 195.989 203.666 196.098 203.586 196.179C203.506 196.259 203.397 196.304 203.283 196.304Z" fill="#CCCCCC"/>
<path d="M203.283 206.584H53.2156C53.1019 206.584 52.9929 206.539 52.9125 206.459C52.832 206.379 52.7869 206.27 52.7869 206.156C52.7869 206.042 52.832 205.934 52.9125 205.853C52.9929 205.773 53.1019 205.728 53.2156 205.728H203.283C203.397 205.728 203.506 205.773 203.586 205.853C203.666 205.934 203.712 206.042 203.712 206.156C203.712 206.27 203.666 206.379 203.586 206.459C203.506 206.539 203.397 206.584 203.283 206.584Z" fill="#CCCCCC"/>
<path d="M203.283 216.865H53.2156C53.1019 216.865 52.9929 216.82 52.9125 216.739C52.832 216.659 52.7869 216.55 52.7869 216.436C52.7869 216.323 52.832 216.214 52.9125 216.133C52.9929 216.053 53.1019 216.008 53.2156 216.008H203.283C203.397 216.008 203.506 216.053 203.586 216.133C203.666 216.214 203.712 216.323 203.712 216.436C203.712 216.55 203.666 216.659 203.586 216.739C203.506 216.82 203.397 216.865 203.283 216.865Z" fill="#CCCCCC"/>
<path d="M311.21 183.655L276.238 227.016L167.497 139.484C155.108 129.511 152.872 111.67 162.513 99.7162C172.155 87.762 190.08 86.1501 202.469 96.1233L311.21 183.655Z" fill="#F2F2F2"/>
<path d="M279.178 228.833C278.821 229.275 278.303 229.557 277.738 229.618C277.173 229.679 276.606 229.513 276.164 229.157L164.484 139.259C158.419 134.376 154.543 127.287 153.71 119.55C152.877 111.812 155.154 104.061 160.042 98.0017C164.929 91.9422 172.026 88.0703 179.77 87.238C187.515 86.4057 195.274 88.681 201.339 93.5636L313.019 183.461C313.238 183.638 313.42 183.855 313.556 184.102C313.691 184.349 313.776 184.62 313.806 184.9C313.836 185.18 313.811 185.463 313.732 185.733C313.652 186.003 313.521 186.254 313.344 186.473C313.167 186.693 312.949 186.875 312.702 187.009C312.455 187.144 312.183 187.229 311.903 187.259C311.623 187.289 311.34 187.264 311.07 187.184C310.8 187.105 310.548 186.973 310.328 186.797L198.649 96.899C196.084 94.8328 193.137 93.2917 189.976 92.3636C186.815 91.4356 183.502 91.1387 180.226 91.4902C176.95 91.8416 173.776 92.8343 170.884 94.4116C167.992 95.989 165.44 98.12 163.373 100.683C161.305 103.246 159.764 106.191 158.836 109.349C157.908 112.508 157.613 115.818 157.966 119.09C158.319 122.363 159.314 125.534 160.894 128.422C162.474 131.31 164.608 133.859 167.174 135.924L278.854 225.821C279.296 226.178 279.579 226.695 279.64 227.26C279.701 227.824 279.534 228.39 279.178 228.833Z" fill="#CCCCCC"/>
<path d="M303.14 193.662L186.285 99.5986C186.241 99.5633 186.205 99.5197 186.178 99.4703C186.151 99.4209 186.134 99.3667 186.128 99.3108C186.122 99.2549 186.127 99.1983 186.143 99.1444C186.159 99.0904 186.185 99.0401 186.22 98.9963C186.256 98.9525 186.299 98.916 186.349 98.8891C186.398 98.8621 186.452 98.8451 186.508 98.8391C186.564 98.8331 186.621 98.8382 186.675 98.854C186.729 98.8698 186.779 98.8962 186.823 98.9315L303.678 192.995C303.722 193.03 303.758 193.074 303.785 193.123C303.812 193.172 303.829 193.227 303.835 193.283C303.841 193.338 303.836 193.395 303.82 193.449C303.805 193.503 303.778 193.554 303.743 193.597C303.708 193.641 303.664 193.678 303.614 193.705C303.565 193.732 303.511 193.749 303.455 193.755C303.399 193.76 303.342 193.755 303.288 193.739C303.234 193.724 303.183 193.697 303.14 193.662Z" fill="#CCCCCC"/>
<path d="M296.683 201.667L179.829 107.604C179.74 107.532 179.684 107.429 179.672 107.316C179.66 107.203 179.693 107.09 179.764 107.002C179.836 106.913 179.939 106.857 180.052 106.845C180.165 106.832 180.278 106.865 180.367 106.937L297.221 201C297.265 201.035 297.302 201.079 297.329 201.128C297.356 201.177 297.373 201.232 297.379 201.288C297.385 201.344 297.38 201.4 297.364 201.454C297.348 201.508 297.322 201.559 297.286 201.602C297.251 201.646 297.207 201.683 297.158 201.71C297.108 201.737 297.054 201.754 296.998 201.76C296.942 201.766 296.885 201.76 296.831 201.745C296.777 201.729 296.727 201.702 296.683 201.667Z" fill="#CCCCCC"/>
<path d="M290.227 209.672L173.372 115.609C173.284 115.537 173.227 115.434 173.215 115.321C173.203 115.208 173.236 115.095 173.308 115.006C173.379 114.918 173.482 114.861 173.596 114.849C173.709 114.837 173.822 114.87 173.91 114.942L290.765 209.005C290.809 209.04 290.845 209.084 290.872 209.133C290.899 209.182 290.916 209.237 290.922 209.293C290.928 209.348 290.923 209.405 290.907 209.459C290.891 209.513 290.865 209.563 290.83 209.607C290.794 209.651 290.751 209.687 290.701 209.714C290.652 209.741 290.598 209.758 290.542 209.764C290.486 209.77 290.429 209.765 290.375 209.749C290.321 209.733 290.271 209.707 290.227 209.672Z" fill="#CCCCCC"/>
<path d="M283.77 217.677L166.916 123.614C166.872 123.578 166.836 123.535 166.809 123.485C166.782 123.436 166.765 123.382 166.759 123.326C166.753 123.27 166.758 123.213 166.774 123.159C166.79 123.106 166.816 123.055 166.851 123.011C166.887 122.968 166.93 122.931 166.98 122.904C167.029 122.877 167.083 122.86 167.139 122.854C167.195 122.848 167.252 122.853 167.306 122.869C167.36 122.885 167.41 122.911 167.454 122.947L284.308 217.01C284.352 217.045 284.389 217.089 284.416 217.138C284.443 217.187 284.46 217.242 284.466 217.298C284.472 217.354 284.467 217.41 284.451 217.464C284.436 217.518 284.409 217.569 284.374 217.612C284.338 217.656 284.295 217.693 284.245 217.72C284.196 217.747 284.142 217.764 284.086 217.77C284.029 217.776 283.973 217.771 283.919 217.755C283.865 217.739 283.814 217.712 283.77 217.677Z" fill="#CCCCCC"/>
<path d="M318.571 231H0.428763C0.315048 231 0.20599 230.955 0.125582 230.875C0.0451728 230.794 0 230.685 0 230.572C0 230.458 0.0451728 230.349 0.125582 230.269C0.20599 230.188 0.315048 230.143 0.428763 230.143H318.571C318.685 230.143 318.794 230.188 318.874 230.269C318.955 230.349 319 230.458 319 230.572C319 230.685 318.955 230.794 318.874 230.875C318.794 230.955 318.685 231 318.571 231Z" fill="#CCCCCC"/>
<path d="M144.957 167.321L140.055 167.32L137.724 148.432L144.958 148.433L144.957 167.321Z" fill="#FFB8B8"/>
<path d="M136.554 165.921H146.007V171.867H130.602C130.602 171.086 130.756 170.313 131.055 169.592C131.354 168.87 131.792 168.215 132.345 167.663C132.898 167.111 133.554 166.673 134.276 166.374C134.998 166.075 135.772 165.921 136.554 165.921Z" fill="#2F2E41"/>
<path d="M94.8793 167.321L89.9777 167.32L87.6465 148.432L94.881 148.433L94.8793 167.321Z" fill="#FFB8B8"/>
<path d="M86.4765 165.921H95.9298V171.867H80.5244C80.5244 171.086 80.6784 170.313 80.9775 169.592C81.2766 168.87 81.715 168.215 82.2677 167.663C82.8204 167.111 83.4766 166.673 84.1987 166.374C84.9209 166.075 85.6948 165.921 86.4765 165.921Z" fill="#2F2E41"/>
<path d="M111.252 27.214V25.0723C111.252 21.4086 112.709 17.8949 115.302 15.3042C117.895 12.7136 121.412 11.2582 125.079 11.2582C128.747 11.2582 132.264 12.7136 134.857 15.3042C137.45 17.8949 138.907 21.4086 138.907 25.0723V27.214C138.907 29.8553 137.857 32.3884 135.987 34.2561C134.118 36.1238 131.582 37.173 128.938 37.173H121.22C119.911 37.173 118.615 36.9154 117.406 36.415C116.196 35.9145 115.097 35.1809 114.171 34.2561C113.246 33.3313 112.512 32.2335 112.011 31.0252C111.51 29.8169 111.252 28.5219 111.252 27.214Z" fill="#2F2E41"/>
<path d="M125.079 37.91C130.895 37.91 135.61 33.1997 135.61 27.3894C135.61 21.579 130.895 16.8688 125.079 16.8688C119.263 16.8688 114.548 21.579 114.548 27.3894C114.548 33.1997 119.263 37.91 125.079 37.91Z" fill="#FFB8B8"/>
<path d="M67.7981 63.5472C68.2254 63.1441 68.7361 62.8395 69.294 62.6548C69.852 62.4701 70.4436 62.4099 71.0274 62.4784C71.6112 62.5469 72.1728 62.7425 72.6727 63.0513C73.1726 63.3601 73.5987 63.7746 73.9209 64.2657L82.9484 62.5598L85.3241 67.7875L72.5417 70.0178C71.68 70.5039 70.6698 70.6573 69.7024 70.4489C68.7351 70.2406 67.8778 69.685 67.2931 68.8874C66.7084 68.0898 66.4368 67.1057 66.5299 66.1215C66.623 65.1372 67.0742 64.2213 67.7981 63.5472Z" fill="#FFB8B8"/>
<path d="M116.987 44.7142L102.184 54.4566L77.2048 62.4252C76.8737 62.5315 76.5897 62.7492 76.4011 63.0411C76.2126 63.3331 76.1311 63.6813 76.1706 64.0265L76.7156 68.7154C76.7397 68.9229 76.807 69.1231 76.9132 69.3031C77.0193 69.4831 77.1619 69.639 77.3319 69.7607C77.5019 69.8825 77.6954 69.9674 77.9001 70.01C78.1049 70.0527 78.3163 70.0521 78.5207 70.0084L102.03 64.9741C103.167 64.7319 104.243 64.2587 105.19 63.5839L121.821 51.763C122.424 51.3321 122.905 50.7527 123.218 50.0811C123.53 49.4095 123.663 48.6686 123.604 47.9304C123.543 47.1911 123.291 46.4805 122.871 45.8684C122.452 45.2562 121.88 44.7637 121.213 44.4392C120.545 44.1147 119.804 43.9694 119.064 44.0176C118.323 44.0658 117.607 44.3059 116.987 44.7142Z" fill="#CCCCCC"/>
<path d="M140.143 161.961C139.766 161.961 139.398 161.851 139.083 161.646C138.768 161.44 138.52 161.148 138.369 160.804L115.897 105.333C115.845 105.212 115.756 105.111 115.645 105.042C115.533 104.973 115.402 104.94 115.271 104.948C115.14 104.955 115.014 105.002 114.911 105.083C114.808 105.164 114.731 105.275 114.693 105.4L96.3596 159.403C96.2822 159.655 96.1542 159.887 95.9834 160.088C95.8126 160.288 95.6026 160.451 95.3664 160.567C95.1302 160.683 94.8728 160.749 94.6099 160.762C94.347 160.775 94.0843 160.734 93.8378 160.642L87.69 158.339C87.3564 158.215 87.0636 158.001 86.8443 157.721C86.625 157.44 86.4878 157.105 86.4479 156.752C83.6822 132.682 107.8 71.9268 108.044 71.3161L108.112 71.1469L130.098 76.0055L130.143 76.0553C138.915 85.615 146.125 145.911 147.481 157.901C147.532 158.334 147.433 158.771 147.201 159.141C146.97 159.51 146.619 159.79 146.207 159.934L140.781 161.851C140.576 161.924 140.36 161.961 140.143 161.961Z" fill="#2F2E41"/>
<path d="M121.2 77.9611C115.873 77.9611 109.934 76.9 108.106 72.5208L108.064 72.4202L108.121 72.3269C109.564 69.9618 111.471 65.9273 110.446 65.1699C108.427 63.6785 107.447 61.2249 107.534 57.8772C107.723 50.61 112.679 44.1578 119.868 41.8218C121.874 41.1803 123.916 40.6551 125.983 40.2488C127.49 39.945 129.046 39.9784 130.538 40.3466C132.031 40.7148 133.423 41.4087 134.615 42.3784C135.822 43.3544 136.798 44.5854 137.473 45.983C138.147 47.3806 138.503 48.9101 138.515 50.4615C138.591 58.2277 137.394 69.0445 131.264 76.4706C130.977 76.8152 130.577 77.0475 130.135 77.1265C127.186 77.6595 124.197 77.9386 121.2 77.9611Z" fill="#CCCCCC"/>
<path d="M119.218 77.6703C119.508 76.6314 120.197 75.7488 121.134 75.2143C122.072 74.6798 123.183 74.5366 124.225 74.8157C124.438 74.8752 124.646 74.952 124.846 75.0454L131.701 68.8135L136.468 72.0219L126.665 80.6877C126.223 81.485 125.526 82.1115 124.686 82.4675C123.846 82.8235 122.91 82.8886 122.029 82.6524C121.516 82.512 121.035 82.2713 120.615 81.9443C120.196 81.6172 119.845 81.2103 119.583 80.747C119.322 80.2837 119.155 79.7733 119.092 79.2452C119.03 78.7171 119.072 78.1818 119.218 77.6703Z" fill="#FFB8B8"/>
<path d="M130.615 77.7494C130.17 77.7497 129.739 77.596 129.395 77.3146L126.692 75.1078C126.467 74.9238 126.286 74.6913 126.163 74.4277C126.041 74.1641 125.979 73.8761 125.984 73.5855C125.988 73.2948 126.058 73.0089 126.189 72.7492C126.32 72.4895 126.508 72.2627 126.739 72.0858L138.076 63.399C138.21 63.2955 138.298 63.1433 138.321 62.9753C138.344 62.8074 138.299 62.6372 138.197 62.5018L131.2 53.2597C130.387 52.1896 129.979 50.8665 130.049 49.5248C130.118 48.1832 130.661 46.9094 131.58 45.9289C132.549 44.8842 133.875 44.2412 135.295 44.1277C136.716 44.0142 138.128 44.4384 139.25 45.3161L139.294 45.3628L146.601 55.8154C147.391 56.4343 148.028 57.2273 148.46 58.1325C148.893 59.0377 149.11 60.0305 149.095 61.0335C149.08 62.0365 148.833 63.0224 148.374 63.9143C147.915 64.8062 147.255 65.58 146.447 66.1751L131.764 77.3714C131.431 77.6169 131.028 77.7494 130.615 77.7494Z" fill="#CCCCCC"/>
<path d="M115.751 24.4298V19.2099L125.079 15.1406L133.974 19.2099V24.4298C133.974 24.657 133.883 24.8749 133.723 25.0355C133.562 25.1962 133.344 25.2865 133.116 25.2865H116.609C116.381 25.2865 116.163 25.1962 116.002 25.0355C115.842 24.8749 115.751 24.657 115.751 24.4298Z" fill="#2F2E41"/>
<path d="M124.651 11.9507C123.28 7.56504 126.16 2.53893 130.418 0.802994C134.677 -0.932944 139.771 0.28053 143.364 3.14856C146.957 6.01659 149.187 10.3124 150.368 14.7529C151.549 19.1935 151.773 23.8239 151.991 28.4134C157.223 29.3735 160.782 35.5728 158.97 40.5691C157.158 45.5653 150.449 48.0474 145.816 45.4361C141.184 42.8247 139.842 35.8049 143.185 31.6718C144.767 29.7161 145.651 27.2889 145.697 24.7748C145.742 22.2607 144.947 19.8032 143.436 17.7917C141.926 15.7802 139.787 14.3296 137.358 13.6697C134.929 13.0097 132.35 13.1782 130.028 14.1483C127.449 15.2256 124.214 12.4267 124.651 11.9507Z" fill="#2F2E41"/>
<path d="M65.8642 43.2982C59.6002 43.2572 53.4146 41.9037 47.7069 39.3254C47.3671 39.1741 47.0787 38.9274 46.8768 38.6152C46.6749 38.3031 46.5683 37.9391 46.5698 37.5675V21.968C46.5704 21.457 46.7739 20.967 47.1356 20.6057C47.4973 20.2443 47.9877 20.0411 48.4993 20.0405H83.2291C83.7407 20.0411 84.2311 20.2443 84.5928 20.6057C84.9545 20.9671 85.158 21.457 85.1585 21.968V37.5675C85.1601 37.9391 85.0534 38.3031 84.8516 38.6153C84.6497 38.9274 84.3613 39.1741 84.0215 39.3254C78.3138 41.9037 72.1282 43.2572 65.8642 43.2982Z" fill="#0D2C38"/>
<path d="M65.8594 30.6608C65.6019 30.661 65.347 30.6098 65.1096 30.5102L37.5693 18.9023C37.2141 18.7526 36.912 18.5001 36.7019 18.1772C36.4917 17.8544 36.3832 17.4761 36.3902 17.0911C36.3973 16.7061 36.5196 16.332 36.7415 16.0171C36.9633 15.7022 37.2745 15.4609 37.6349 15.3243L65.1756 4.88653C65.6192 4.71765 66.1096 4.71869 66.5525 4.88946L93.7241 15.3272C94.0825 15.4649 94.3916 15.7063 94.6119 16.0204C94.8321 16.3346 94.9536 16.7072 94.9607 17.0907C94.9678 17.4742 94.8602 17.8511 94.6517 18.1732C94.4432 18.4953 94.1432 18.7479 93.7902 18.8987L66.6182 30.5065C66.3783 30.6085 66.1202 30.6611 65.8594 30.6608Z" fill="#0D2C38"/>
<path d="M49.7855 40.3868C51.2063 40.3868 52.3581 39.2362 52.3581 37.8168C52.3581 36.3974 51.2063 35.2467 49.7855 35.2467C48.3647 35.2467 47.2129 36.3974 47.2129 37.8168C47.2129 39.2362 48.3647 40.3868 49.7855 40.3868Z" fill="#3F3D56"/>
<path opacity="0.2" d="M93.884 17.251L66.712 28.8588C66.5001 28.9493 66.2722 28.9962 66.0418 28.9968C65.8114 28.9973 65.5833 28.9515 65.371 28.862L37.8307 17.2544C37.4849 17.1121 37.1963 16.8588 37.0107 16.5343C36.8892 16.7447 36.814 16.9785 36.7899 17.2201C36.7658 17.4618 36.7935 17.7058 36.8711 17.9359C36.9486 18.1661 37.0743 18.3771 37.2398 18.555C37.4052 18.7329 37.6067 18.8736 37.8307 18.9678L65.371 30.5754C65.5833 30.6649 65.8114 30.7107 66.0418 30.7102C66.2722 30.7096 66.5001 30.6627 66.712 30.5722L93.884 18.9644C94.1069 18.8694 94.3072 18.7283 94.4715 18.5503C94.6358 18.3723 94.7604 18.1615 94.8372 17.9319C94.9139 17.7022 94.9411 17.4589 94.9168 17.218C94.8925 16.9771 94.8174 16.7441 94.6963 16.5343C94.512 16.8561 94.2264 17.1081 93.884 17.251Z" fill="black"/>
<path d="M50.0018 37.8067C50.1155 37.8067 50.2245 37.7616 50.305 37.6813C50.3854 37.6009 50.4305 37.492 50.4305 37.3784V23.0454L64.5717 17.8988C64.6854 17.9004 64.7951 17.8569 64.8767 17.7778C64.9583 17.6987 65.0051 17.5904 65.0068 17.4768C65.0085 17.3632 64.965 17.2536 64.8857 17.172C64.8065 17.0905 64.6981 17.0438 64.5844 17.0421L50.4433 22.1887C50.3295 22.1861 50.2164 22.2066 50.1107 22.2489C50.0051 22.2913 49.9092 22.3546 49.8287 22.4351C49.7475 22.5146 49.683 22.6095 49.639 22.7144C49.5951 22.8192 49.5727 22.9317 49.573 23.0454V37.3784C49.573 37.492 49.6182 37.6009 49.6986 37.6812C49.779 37.7616 49.8881 37.8067 50.0018 37.8067Z" fill="#3F3D56"/>
</g>
<defs>
<clipPath id="clip0_48_39">
<rect width="319" height="231" fill="white"/>
</clipPath>
</defs>
</svg>
